<?xml version="1.0" encoding="utf-8" standalone="no"?>
<!DOCTYPE svg PUBLIC "-//W3C//DTD SVG 1.1//EN"
  "http://www.w3.org/Graphics/SVG/1.1/DTD/svg11.dtd">
<svg xmlns:xlink="http://www.w3.org/1999/xlink" width="438.009375pt" height="303.964812pt" viewBox="0 0 438.009375 303.964812" xmlns="http://www.w3.org/2000/svg" version="1.1">
 <metadata>
  <rdf:RDF xmlns:dc="http://purl.org/dc/elements/1.1/" xmlns:cc="http://creativecommons.org/ns#" xmlns:rdf="http://www.w3.org/1999/02/22-rdf-syntax-ns#">
   <cc:Work>
    <dc:type rdf:resource="http://purl.org/dc/dcmitype/StillImage"/>
    <dc:date>2023-06-02T00:25:32.035067</dc:date>
    <dc:format>image/svg+xml</dc:format>
    <dc:creator>
     <cc:Agent>
      <dc:title>Matplotlib v3.5.3, https://matplotlib.org/</dc:title>
     </cc:Agent>
    </dc:creator>
   </cc:Work>
  </rdf:RDF>
 </metadata>
 <defs>
  <style type="text/css">*{stroke-linejoin: round; stroke-linecap: butt}</style>
 </defs>
 <g id="figure_1">
  <g id="patch_1">
   <path d="M 0 303.964812 
L 438.009375 303.964812 
L 438.009375 0 
L 0 0 
z
" style="fill: #ffffff"/>
  </g>
  <g id="axes_1">
   <g id="patch_2">
    <path d="M 46.64875 273.312 
L 403.76875 273.312 
L 403.76875 7.2 
L 46.64875 7.2 
z
" style="fill: #ffffff"/>
   </g>
   <g id="patch_3">
    <path d="M 51.496402 273.312 
L 51.496529 273.312 
L 51.496529 269.999059 
L 51.496402 269.999059 
z
" clip-path="url(#pc19b6b018d)" style="fill: #1f77b4"/>
   </g>
   <g id="patch_4">
    <path d="M 51.496529 273.312 
L 51.496655 273.312 
L 51.496655 260.888471 
L 51.496529 260.888471 
z
" clip-path="url(#pc19b6b018d)" style="fill: #1f77b4"/>
   </g>
   <g id="patch_5">
    <path d="M 51.496655 273.312 
L 51.496781 273.312 
L 51.496781 250.121412 
L 51.496655 250.121412 
z
" clip-path="url(#pc19b6b018d)" style="fill: #1f77b4"/>
   </g>
   <g id="patch_6">
    <path d="M 51.496781 273.312 
L 51.496907 273.312 
L 51.496907 229.415529 
L 51.496781 229.415529 
z
" clip-path="url(#pc19b6b018d)" style="fill: #1f77b4"/>
   </g>
   <g id="patch_7">
    <path d="M 51.496907 273.312 
L 51.497033 273.312 
L 51.497033 187.175529 
L 51.496907 187.175529 
z
" clip-path="url(#pc19b6b018d)" style="fill: #1f77b4"/>
   </g>
   <g id="patch_8">
    <path d="M 51.497033 273.312 
L 51.49716 273.312 
L 51.49716 140.794353 
L 51.497033 140.794353 
z
" clip-path="url(#pc19b6b018d)" style="fill: #1f77b4"/>
   </g>
   <g id="patch_9">
    <path d="M 51.49716 273.312 
L 51.497286 273.312 
L 51.497286 123.401412 
L 51.49716 123.401412 
z
" clip-path="url(#pc19b6b018d)" style="fill: #1f77b4"/>
   </g>
   <g id="patch_10">
    <path d="M 51.497286 273.312 
L 51.497412 273.312 
L 51.497412 68.737882 
L 51.497286 68.737882 
z
" clip-path="url(#pc19b6b018d)" style="fill: #1f77b4"/>
   </g>
   <g id="patch_11">
    <path d="M 51.497412 273.312 
L 51.497538 273.312 
L 51.497538 73.707294 
L 51.497412 73.707294 
z
" clip-path="url(#pc19b6b018d)" style="fill: #1f77b4"/>
   </g>
   <g id="patch_12">
    <path d="M 51.497538 273.312 
L 51.497665 273.312 
L 51.497665 40.577882 
L 51.497538 40.577882 
z
" clip-path="url(#pc19b6b018d)" style="fill: #1f77b4"/>
   </g>
   <g id="patch_13">
    <path d="M 51.497665 273.312 
L 51.497791 273.312 
L 51.497791 34.780235 
L 51.497665 34.780235 
z
" clip-path="url(#pc19b6b018d)" style="fill: #1f77b4"/>
   </g>
   <g id="patch_14">
    <path d="M 51.497791 273.312 
L 51.497917 273.312 
L 51.497917 19.872 
L 51.497791 19.872 
z
" clip-path="url(#pc19b6b018d)" style="fill: #1f77b4"/>
   </g>
   <g id="patch_15">
    <path d="M 51.497917 273.312 
L 51.498043 273.312 
L 51.498043 71.222588 
L 51.497917 71.222588 
z
" clip-path="url(#pc19b6b018d)" style="fill: #1f77b4"/>
   </g>
   <g id="patch_16">
    <path d="M 51.498043 273.312 
L 51.498169 273.312 
L 51.498169 65.424941 
L 51.498043 65.424941 
z
" clip-path="url(#pc19b6b018d)" style="fill: #1f77b4"/>
   </g>
   <g id="patch_17">
    <path d="M 51.498169 273.312 
L 51.498296 273.312 
L 51.498296 103.523765 
L 51.498169 103.523765 
z
" clip-path="url(#pc19b6b018d)" style="fill: #1f77b4"/>
   </g>
   <g id="patch_18">
    <path d="M 51.498296 273.312 
L 51.498422 273.312 
L 51.498422 127.542588 
L 51.498296 127.542588 
z
" clip-path="url(#pc19b6b018d)" style="fill: #1f77b4"/>
   </g>
   <g id="patch_19">
    <path d="M 51.498422 273.312 
L 51.498548 273.312 
L 51.498548 132.512 
L 51.498422 132.512 
z
" clip-path="url(#pc19b6b018d)" style="fill: #1f77b4"/>
   </g>
   <g id="patch_20">
    <path d="M 51.498548 273.312 
L 51.498674 273.312 
L 51.498674 169.782588 
L 51.498548 169.782588 
z
" clip-path="url(#pc19b6b018d)" style="fill: #1f77b4"/>
   </g>
   <g id="patch_21">
    <path d="M 51.498674 273.312 
L 51.4988 273.312 
L 51.4988 181.377882 
L 51.498674 181.377882 
z
" clip-path="url(#pc19b6b018d)" style="fill: #1f77b4"/>
   </g>
   <g id="patch_22">
    <path d="M 51.4988 273.312 
L 51.498927 273.312 
L 51.498927 197.942588 
L 51.4988 197.942588 
z
" clip-path="url(#pc19b6b018d)" style="fill: #1f77b4"/>
   </g>
   <g id="patch_23">
    <path d="M 51.498927 273.312 
L 51.499053 273.312 
L 51.499053 215.335529 
L 51.498927 215.335529 
z
" clip-path="url(#pc19b6b018d)" style="fill: #1f77b4"/>
   </g>
   <g id="patch_24">
    <path d="M 51.499053 273.312 
L 51.499179 273.312 
L 51.499179 226.102588 
L 51.499053 226.102588 
z
" clip-path="url(#pc19b6b018d)" style="fill: #1f77b4"/>
   </g>
   <g id="patch_25">
    <path d="M 51.499179 273.312 
L 51.499305 273.312 
L 51.499305 217.820235 
L 51.499179 217.820235 
z
" clip-path="url(#pc19b6b018d)" style="fill: #1f77b4"/>
   </g>
   <g id="patch_26">
    <path d="M 51.499305 273.312 
L 51.499431 273.312 
L 51.499431 232.728471 
L 51.499305 232.728471 
z
" clip-path="url(#pc19b6b018d)" style="fill: #1f77b4"/>
   </g>
   <g id="patch_27">
    <path d="M 51.499431 273.312 
L 51.499558 273.312 
L 51.499558 242.667294 
L 51.499431 242.667294 
z
" clip-path="url(#pc19b6b018d)" style="fill: #1f77b4"/>
   </g>
   <g id="patch_28">
    <path d="M 51.499558 273.312 
L 51.499684 273.312 
L 51.499684 243.495529 
L 51.499558 243.495529 
z
" clip-path="url(#pc19b6b018d)" style="fill: #1f77b4"/>
   </g>
   <g id="patch_29">
    <path d="M 51.499684 273.312 
L 51.49981 273.312 
L 51.49981 253.434353 
L 51.499684 253.434353 
z
" clip-path="url(#pc19b6b018d)" style="fill: #1f77b4"/>
   </g>
   <g id="patch_30">
    <path d="M 51.49981 273.312 
L 51.499936 273.312 
L 51.499936 255.090824 
L 51.49981 255.090824 
z
" clip-path="url(#pc19b6b018d)" style="fill: #1f77b4"/>
   </g>
   <g id="patch_31">
    <path d="M 51.499936 273.312 
L 51.500062 273.312 
L 51.500062 264.201412 
L 51.499936 264.201412 
z
" clip-path="url(#pc19b6b018d)" style="fill: #1f77b4"/>
   </g>
   <g id="patch_32">
    <path d="M 51.500062 273.312 
L 51.500189 273.312 
L 51.500189 257.575529 
L 51.500062 257.575529 
z
" clip-path="url(#pc19b6b018d)" style="fill: #1f77b4"/>
   </g>
   <g id="patch_33">
    <path d="M 51.500189 273.312 
L 51.500315 273.312 
L 51.500315 261.716706 
L 51.500189 261.716706 
z
" clip-path="url(#pc19b6b018d)" style="fill: #1f77b4"/>
   </g>
   <g id="patch_34">
    <path d="M 51.500315 273.312 
L 51.500441 273.312 
L 51.500441 260.888471 
L 51.500315 260.888471 
z
" clip-path="url(#pc19b6b018d)" style="fill: #1f77b4"/>
   </g>
   <g id="patch_35">
    <path d="M 51.500441 273.312 
L 51.500567 273.312 
L 51.500567 265.029647 
L 51.500441 265.029647 
z
" clip-path="url(#pc19b6b018d)" style="fill: #1f77b4"/>
   </g>
   <g id="patch_36">
    <path d="M 51.500567 273.312 
L 51.500694 273.312 
L 51.500694 260.060235 
L 51.500567 260.060235 
z
" clip-path="url(#pc19b6b018d)" style="fill: #1f77b4"/>
   </g>
   <g id="patch_37">
    <path d="M 51.500694 273.312 
L 51.50082 273.312 
L 51.50082 263.373176 
L 51.500694 263.373176 
z
" clip-path="url(#pc19b6b018d)" style="fill: #1f77b4"/>
   </g>
   <g id="patch_38">
    <path d="M 51.50082 273.312 
L 51.500946 273.312 
L 51.500946 270.827294 
L 51.50082 270.827294 
z
" clip-path="url(#pc19b6b018d)" style="fill: #1f77b4"/>
   </g>
   <g id="patch_39">
    <path d="M 51.500946 273.312 
L 51.501072 273.312 
L 51.501072 265.857882 
L 51.500946 265.857882 
z
" clip-path="url(#pc19b6b018d)" style="fill: #1f77b4"/>
   </g>
   <g id="patch_40">
    <path d="M 51.501072 273.312 
L 51.501198 273.312 
L 51.501198 265.857882 
L 51.501072 265.857882 
z
" clip-path="url(#pc19b6b018d)" style="fill: #1f77b4"/>
   </g>
   <g id="patch_41">
    <path d="M 51.501198 273.312 
L 51.501325 273.312 
L 51.501325 268.342588 
L 51.501198 268.342588 
z
" clip-path="url(#pc19b6b018d)" style="fill: #1f77b4"/>
   </g>
   <g id="patch_42">
    <path d="M 51.501325 273.312 
L 51.501451 273.312 
L 51.501451 265.857882 
L 51.501325 265.857882 
z
" clip-path="url(#pc19b6b018d)" style="fill: #1f77b4"/>
   </g>
   <g id="patch_43">
    <path d="M 51.501451 273.312 
L 51.501577 273.312 
L 51.501577 268.342588 
L 51.501451 268.342588 
z
" clip-path="url(#pc19b6b018d)" style="fill: #1f77b4"/>
   </g>
   <g id="patch_44">
    <path d="M 51.501577 273.312 
L 51.501703 273.312 
L 51.501703 268.342588 
L 51.501577 268.342588 
z
" clip-path="url(#pc19b6b018d)" style="fill: #1f77b4"/>
   </g>
   <g id="patch_45">
    <path d="M 51.501703 273.312 
L 51.501829 273.312 
L 51.501829 266.686118 
L 51.501703 266.686118 
z
" clip-path="url(#pc19b6b018d)" style="fill: #1f77b4"/>
   </g>
   <g id="patch_46">
    <path d="M 51.501829 273.312 
L 51.501956 273.312 
L 51.501956 268.342588 
L 51.501829 268.342588 
z
" clip-path="url(#pc19b6b018d)" style="fill: #1f77b4"/>
   </g>
   <g id="patch_47">
    <path d="M 51.501956 273.312 
L 51.502082 273.312 
L 51.502082 271.655529 
L 51.501956 271.655529 
z
" clip-path="url(#pc19b6b018d)" style="fill: #1f77b4"/>
   </g>
   <g id="patch_48">
    <path d="M 51.502082 273.312 
L 51.502208 273.312 
L 51.502208 271.655529 
L 51.502082 271.655529 
z
" clip-path="url(#pc19b6b018d)" style="fill: #1f77b4"/>
   </g>
   <g id="patch_49">
    <path d="M 51.502208 273.312 
L 51.502334 273.312 
L 51.502334 270.827294 
L 51.502208 270.827294 
z
" clip-path="url(#pc19b6b018d)" style="fill: #1f77b4"/>
   </g>
   <g id="patch_50">
    <path d="M 51.502334 273.312 
L 51.50246 273.312 
L 51.50246 271.655529 
L 51.502334 271.655529 
z
" clip-path="url(#pc19b6b018d)" style="fill: #1f77b4"/>
   </g>
   <g id="patch_51">
    <path d="M 51.50246 273.312 
L 51.502587 273.312 
L 51.502587 272.483765 
L 51.50246 272.483765 
z
" clip-path="url(#pc19b6b018d)" style="fill: #1f77b4"/>
   </g>
   <g id="patch_52">
    <path d="M 51.502587 273.312 
L 51.502713 273.312 
L 51.502713 273.312 
L 51.502587 273.312 
z
" clip-path="url(#pc19b6b018d)" style="fill: #1f77b4"/>
   </g>
   <g id="patch_53">
    <path d="M 51.502713 273.312 
L 51.502839 273.312 
L 51.502839 269.170824 
L 51.502713 269.170824 
z
" clip-path="url(#pc19b6b018d)" style="fill: #1f77b4"/>
   </g>
   <g id="patch_54">
    <path d="M 51.502839 273.312 
L 51.502965 273.312 
L 51.502965 271.655529 
L 51.502839 271.655529 
z
" clip-path="url(#pc19b6b018d)" style="fill: #1f77b4"/>
   </g>
   <g id="patch_55">
    <path d="M 51.502965 273.312 
L 51.503091 273.312 
L 51.503091 273.312 
L 51.502965 273.312 
z
" clip-path="url(#pc19b6b018d)" style="fill: #1f77b4"/>
   </g>
   <g id="patch_56">
    <path d="M 51.503091 273.312 
L 51.503218 273.312 
L 51.503218 270.827294 
L 51.503091 270.827294 
z
" clip-path="url(#pc19b6b018d)" style="fill: #1f77b4"/>
   </g>
   <g id="patch_57">
    <path d="M 51.503218 273.312 
L 51.503344 273.312 
L 51.503344 271.655529 
L 51.503218 271.655529 
z
" clip-path="url(#pc19b6b018d)" style="fill: #1f77b4"/>
   </g>
   <g id="patch_58">
    <path d="M 51.503344 273.312 
L 51.50347 273.312 
L 51.50347 271.655529 
L 51.503344 271.655529 
z
" clip-path="url(#pc19b6b018d)" style="fill: #1f77b4"/>
   </g>
   <g id="patch_59">
    <path d="M 51.50347 273.312 
L 51.503596 273.312 
L 51.503596 272.483765 
L 51.50347 272.483765 
z
" clip-path="url(#pc19b6b018d)" style="fill: #1f77b4"/>
   </g>
   <g id="patch_60">
    <path d="M 51.503596 273.312 
L 51.503723 273.312 
L 51.503723 271.655529 
L 51.503596 271.655529 
z
" clip-path="url(#pc19b6b018d)" style="fill: #1f77b4"/>
   </g>
   <g id="patch_61">
    <path d="M 51.503723 273.312 
L 51.503849 273.312 
L 51.503849 273.312 
L 51.503723 273.312 
z
" clip-path="url(#pc19b6b018d)" style="fill: #1f77b4"/>
   </g>
   <g id="patch_62">
    <path d="M 51.503849 273.312 
L 51.503975 273.312 
L 51.503975 273.312 
L 51.503849 273.312 
z
" clip-path="url(#pc19b6b018d)" style="fill: #1f77b4"/>
   </g>
   <g id="patch_63">
    <path d="M 51.503975 273.312 
L 51.504101 273.312 
L 51.504101 271.655529 
L 51.503975 271.655529 
z
" clip-path="url(#pc19b6b018d)" style="fill: #1f77b4"/>
   </g>
   <g id="patch_64">
    <path d="M 51.504101 273.312 
L 51.504227 273.312 
L 51.504227 272.483765 
L 51.504101 272.483765 
z
" clip-path="url(#pc19b6b018d)" style="fill: #1f77b4"/>
   </g>
   <g id="patch_65">
    <path d="M 51.504227 273.312 
L 51.504354 273.312 
L 51.504354 273.312 
L 51.504227 273.312 
z
" clip-path="url(#pc19b6b018d)" style="fill: #1f77b4"/>
   </g>
   <g id="patch_66">
    <path d="M 51.504354 273.312 
L 51.50448 273.312 
L 51.50448 272.483765 
L 51.504354 272.483765 
z
" clip-path="url(#pc19b6b018d)" style="fill: #1f77b4"/>
   </g>
   <g id="patch_67">
    <path d="M 51.50448 273.312 
L 51.504606 273.312 
L 51.504606 272.483765 
L 51.50448 272.483765 
z
" clip-path="url(#pc19b6b018d)" style="fill: #1f77b4"/>
   </g>
   <g id="patch_68">
    <path d="M 51.504606 273.312 
L 51.504732 273.312 
L 51.504732 272.483765 
L 51.504606 272.483765 
z
" clip-path="url(#pc19b6b018d)" style="fill: #1f77b4"/>
   </g>
   <g id="patch_69">
    <path d="M 51.504732 273.312 
L 51.504858 273.312 
L 51.504858 271.655529 
L 51.504732 271.655529 
z
" clip-path="url(#pc19b6b018d)" style="fill: #1f77b4"/>
   </g>
   <g id="patch_70">
    <path d="M 51.504858 273.312 
L 51.504985 273.312 
L 51.504985 273.312 
L 51.504858 273.312 
z
" clip-path="url(#pc19b6b018d)" style="fill: #1f77b4"/>
   </g>
   <g id="patch_71">
    <path d="M 51.504985 273.312 
L 51.505111 273.312 
L 51.505111 273.312 
L 51.504985 273.312 
z
" clip-path="url(#pc19b6b018d)" style="fill: #1f77b4"/>
   </g>
   <g id="patch_72">
    <path d="M 51.505111 273.312 
L 51.505237 273.312 
L 51.505237 273.312 
L 51.505111 273.312 
z
" clip-path="url(#pc19b6b018d)" style="fill: #1f77b4"/>
   </g>
   <g id="patch_73">
    <path d="M 51.505237 273.312 
L 51.505363 273.312 
L 51.505363 273.312 
L 51.505237 273.312 
z
" clip-path="url(#pc19b6b018d)" style="fill: #1f77b4"/>
   </g>
   <g id="patch_74">
    <path d="M 51.505363 273.312 
L 51.505489 273.312 
L 51.505489 272.483765 
L 51.505363 272.483765 
z
" clip-path="url(#pc19b6b018d)" style="fill: #1f77b4"/>
   </g>
   <g id="patch_75">
    <path d="M 51.505489 273.312 
L 51.505616 273.312 
L 51.505616 273.312 
L 51.505489 273.312 
z
" clip-path="url(#pc19b6b018d)" style="fill: #1f77b4"/>
   </g>
   <g id="patch_76">
    <path d="M 51.505616 273.312 
L 51.505742 273.312 
L 51.505742 273.312 
L 51.505616 273.312 
z
" clip-path="url(#pc19b6b018d)" style="fill: #1f77b4"/>
   </g>
   <g id="patch_77">
    <path d="M 51.505742 273.312 
L 51.505868 273.312 
L 51.505868 272.483765 
L 51.505742 272.483765 
z
" clip-path="url(#pc19b6b018d)" style="fill: #1f77b4"/>
   </g>
   <g id="patch_78">
    <path d="M 51.505868 273.312 
L 51.505994 273.312 
L 51.505994 273.312 
L 51.505868 273.312 
z
" clip-path="url(#pc19b6b018d)" style="fill: #1f77b4"/>
   </g>
   <g id="patch_79">
    <path d="M 51.505994 273.312 
L 51.506121 273.312 
L 51.506121 272.483765 
L 51.505994 272.483765 
z
" clip-path="url(#pc19b6b018d)" style="fill: #1f77b4"/>
   </g>
   <g id="patch_80">
    <path d="M 51.506121 273.312 
L 51.506247 273.312 
L 51.506247 273.312 
L 51.506121 273.312 
z
" clip-path="url(#pc19b6b018d)" style="fill: #1f77b4"/>
   </g>
   <g id="patch_81">
    <path d="M 51.506247 273.312 
L 51.506373 273.312 
L 51.506373 272.483765 
L 51.506247 272.483765 
z
" clip-path="url(#pc19b6b018d)" style="fill: #1f77b4"/>
   </g>
   <g id="patch_82">
    <path d="M 51.506373 273.312 
L 51.506499 273.312 
L 51.506499 273.312 
L 51.506373 273.312 
z
" clip-path="url(#pc19b6b018d)" style="fill: #1f77b4"/>
   </g>
   <g id="patch_83">
    <path d="M 51.506499 273.312 
L 51.506625 273.312 
L 51.506625 273.312 
L 51.506499 273.312 
z
" clip-path="url(#pc19b6b018d)" style="fill: #1f77b4"/>
   </g>
   <g id="patch_84">
    <path d="M 51.506625 273.312 
L 51.506752 273.312 
L 51.506752 273.312 
L 51.506625 273.312 
z
" clip-path="url(#pc19b6b018d)" style="fill: #1f77b4"/>
   </g>
   <g id="patch_85">
    <path d="M 51.506752 273.312 
L 51.506878 273.312 
L 51.506878 273.312 
L 51.506752 273.312 
z
" clip-path="url(#pc19b6b018d)" style="fill: #1f77b4"/>
   </g>
   <g id="patch_86">
    <path d="M 51.506878 273.312 
L 51.507004 273.312 
L 51.507004 273.312 
L 51.506878 273.312 
z
" clip-path="url(#pc19b6b018d)" style="fill: #1f77b4"/>
   </g>
   <g id="patch_87">
    <path d="M 51.507004 273.312 
L 51.50713 273.312 
L 51.50713 272.483765 
L 51.507004 272.483765 
z
" clip-path="url(#pc19b6b018d)" style="fill: #1f77b4"/>
   </g>
   <g id="patch_88">
    <path d="M 51.50713 273.312 
L 51.507256 273.312 
L 51.507256 273.312 
L 51.50713 273.312 
z
" clip-path="url(#pc19b6b018d)" style="fill: #1f77b4"/>
   </g>
   <g id="patch_89">
    <path d="M 51.507256 273.312 
L 51.507383 273.312 
L 51.507383 273.312 
L 51.507256 273.312 
z
" clip-path="url(#pc19b6b018d)" style="fill: #1f77b4"/>
   </g>
   <g id="patch_90">
    <path d="M 51.507383 273.312 
L 51.507509 273.312 
L 51.507509 273.312 
L 51.507383 273.312 
z
" clip-path="url(#pc19b6b018d)" style="fill: #1f77b4"/>
   </g>
   <g id="patch_91">
    <path d="M 51.507509 273.312 
L 51.507635 273.312 
L 51.507635 273.312 
L 51.507509 273.312 
z
" clip-path="url(#pc19b6b018d)" style="fill: #1f77b4"/>
   </g>
   <g id="patch_92">
    <path d="M 51.507635 273.312 
L 51.507761 273.312 
L 51.507761 273.312 
L 51.507635 273.312 
z
" clip-path="url(#pc19b6b018d)" style="fill: #1f77b4"/>
   </g>
   <g id="patch_93">
    <path d="M 51.507761 273.312 
L 51.507887 273.312 
L 51.507887 273.312 
L 51.507761 273.312 
z
" clip-path="url(#pc19b6b018d)" style="fill: #1f77b4"/>
   </g>
   <g id="patch_94">
    <path d="M 51.507887 273.312 
L 51.508014 273.312 
L 51.508014 273.312 
L 51.507887 273.312 
z
" clip-path="url(#pc19b6b018d)" style="fill: #1f77b4"/>
   </g>
   <g id="patch_95">
    <path d="M 51.508014 273.312 
L 51.50814 273.312 
L 51.50814 273.312 
L 51.508014 273.312 
z
" clip-path="url(#pc19b6b018d)" style="fill: #1f77b4"/>
   </g>
   <g id="patch_96">
    <path d="M 51.50814 273.312 
L 51.508266 273.312 
L 51.508266 273.312 
L 51.50814 273.312 
z
" clip-path="url(#pc19b6b018d)" style="fill: #1f77b4"/>
   </g>
   <g id="patch_97">
    <path d="M 51.508266 273.312 
L 51.508392 273.312 
L 51.508392 273.312 
L 51.508266 273.312 
z
" clip-path="url(#pc19b6b018d)" style="fill: #1f77b4"/>
   </g>
   <g id="patch_98">
    <path d="M 51.508392 273.312 
L 51.508518 273.312 
L 51.508518 273.312 
L 51.508392 273.312 
z
" clip-path="url(#pc19b6b018d)" style="fill: #1f77b4"/>
   </g>
   <g id="patch_99">
    <path d="M 51.508518 273.312 
L 51.508645 273.312 
L 51.508645 273.312 
L 51.508518 273.312 
z
" clip-path="url(#pc19b6b018d)" style="fill: #1f77b4"/>
   </g>
   <g id="patch_100">
    <path d="M 51.508645 273.312 
L 51.508771 273.312 
L 51.508771 273.312 
L 51.508645 273.312 
z
" clip-path="url(#pc19b6b018d)" style="fill: #1f77b4"/>
   </g>
   <g id="patch_101">
    <path d="M 51.508771 273.312 
L 51.508897 273.312 
L 51.508897 272.483765 
L 51.508771 272.483765 
z
" clip-path="url(#pc19b6b018d)" style="fill: #1f77b4"/>
   </g>
   <g id="patch_102">
    <path d="M 51.508897 273.312 
L 51.509023 273.312 
L 51.509023 272.483765 
L 51.508897 272.483765 
z
" clip-path="url(#pc19b6b018d)" style="fill: #1f77b4"/>
   </g>
   <g id="PolyCollection_1"/>
   <g id="PolyCollection_2"/>
   <g id="matplotlib.axis_1">
    <g id="xtick_1">
     <g id="line2d_1">
      <defs>
       <path id="m369bc63ecf" d="M 0 0 
L 0 3.5 
" style="stroke: #000000; stroke-width: 0.8"/>
      </defs>
      <g>
       <use xlink:href="#m369bc63ecf" x="51.48386" y="273.312" style="stroke: #000000; stroke-width: 0.8"/>
      </g>
     </g>
     <g id="text_1">
      <!-- 0 -->
      <g transform="translate(46.075735 293.229344)scale(0.17 -0.17)">
       <defs>
        <path id="DejaVuSans-30" d="M 2034 4250 
Q 1547 4250 1301 3770 
Q 1056 3291 1056 2328 
Q 1056 1369 1301 889 
Q 1547 409 2034 409 
Q 2525 409 2770 889 
Q 3016 1369 3016 2328 
Q 3016 3291 2770 3770 
Q 2525 4250 2034 4250 
z
M 2034 4750 
Q 2819 4750 3233 4129 
Q 3647 3509 3647 2328 
Q 3647 1150 3233 529 
Q 2819 -91 2034 -91 
Q 1250 -91 836 529 
Q 422 1150 422 2328 
Q 422 3509 836 4129 
Q 1250 4750 2034 4750 
z
" transform="scale(0.015625)"/>
       </defs>
       <use xlink:href="#DejaVuSans-30"/>
      </g>
     </g>
    </g>
    <g id="xtick_2">
     <g id="line2d_2">
      <g>
       <use xlink:href="#m369bc63ecf" x="139.555083" y="273.312" style="stroke: #000000; stroke-width: 0.8"/>
      </g>
     </g>
     <g id="text_2">
      <!-- 3500 -->
      <g transform="translate(117.922583 293.229344)scale(0.17 -0.17)">
       <defs>
        <path id="DejaVuSans-33" d="M 2597 2516 
Q 3050 2419 3304 2112 
Q 3559 1806 3559 1356 
Q 3559 666 3084 287 
Q 2609 -91 1734 -91 
Q 1441 -91 1130 -33 
Q 819 25 488 141 
L 488 750 
Q 750 597 1062 519 
Q 1375 441 1716 441 
Q 2309 441 2620 675 
Q 2931 909 2931 1356 
Q 2931 1769 2642 2001 
Q 2353 2234 1838 2234 
L 1294 2234 
L 1294 2753 
L 1863 2753 
Q 2328 2753 2575 2939 
Q 2822 3125 2822 3475 
Q 2822 3834 2567 4026 
Q 2313 4219 1838 4219 
Q 1578 4219 1281 4162 
Q 984 4106 628 3988 
L 628 4550 
Q 988 4650 1302 4700 
Q 1616 4750 1894 4750 
Q 2613 4750 3031 4423 
Q 3450 4097 3450 3541 
Q 3450 3153 3228 2886 
Q 3006 2619 2597 2516 
z
" transform="scale(0.015625)"/>
        <path id="DejaVuSans-35" d="M 691 4666 
L 3169 4666 
L 3169 4134 
L 1269 4134 
L 1269 2991 
Q 1406 3038 1543 3061 
Q 1681 3084 1819 3084 
Q 2600 3084 3056 2656 
Q 3513 2228 3513 1497 
Q 3513 744 3044 326 
Q 2575 -91 1722 -91 
Q 1428 -91 1123 -41 
Q 819 9 494 109 
L 494 744 
Q 775 591 1075 516 
Q 1375 441 1709 441 
Q 2250 441 2565 725 
Q 2881 1009 2881 1497 
Q 2881 1984 2565 2268 
Q 2250 2553 1709 2553 
Q 1456 2553 1204 2497 
Q 953 2441 691 2322 
L 691 4666 
z
" transform="scale(0.015625)"/>
       </defs>
       <use xlink:href="#DejaVuSans-33"/>
       <use xlink:href="#DejaVuSans-35" x="63.623047"/>
       <use xlink:href="#DejaVuSans-30" x="127.246094"/>
       <use xlink:href="#DejaVuSans-30" x="190.869141"/>
      </g>
     </g>
    </g>
    <g id="xtick_3">
     <g id="line2d_3">
      <g>
       <use xlink:href="#m369bc63ecf" x="227.626305" y="273.312" style="stroke: #000000; stroke-width: 0.8"/>
      </g>
     </g>
     <g id="text_3">
      <!-- 7000 -->
      <g transform="translate(205.993805 293.229344)scale(0.17 -0.17)">
       <defs>
        <path id="DejaVuSans-37" d="M 525 4666 
L 3525 4666 
L 3525 4397 
L 1831 0 
L 1172 0 
L 2766 4134 
L 525 4134 
L 525 4666 
z
" transform="scale(0.015625)"/>
       </defs>
       <use xlink:href="#DejaVuSans-37"/>
       <use xlink:href="#DejaVuSans-30" x="63.623047"/>
       <use xlink:href="#DejaVuSans-30" x="127.246094"/>
       <use xlink:href="#DejaVuSans-30" x="190.869141"/>
      </g>
     </g>
    </g>
    <g id="xtick_4">
     <g id="line2d_4">
      <g>
       <use xlink:href="#m369bc63ecf" x="315.697528" y="273.312" style="stroke: #000000; stroke-width: 0.8"/>
      </g>
     </g>
     <g id="text_4">
      <!-- 10500 -->
      <g transform="translate(288.656903 293.229344)scale(0.17 -0.17)">
       <defs>
        <path id="DejaVuSans-31" d="M 794 531 
L 1825 531 
L 1825 4091 
L 703 3866 
L 703 4441 
L 1819 4666 
L 2450 4666 
L 2450 531 
L 3481 531 
L 3481 0 
L 794 0 
L 794 531 
z
" transform="scale(0.015625)"/>
       </defs>
       <use xlink:href="#DejaVuSans-31"/>
       <use xlink:href="#DejaVuSans-30" x="63.623047"/>
       <use xlink:href="#DejaVuSans-35" x="127.246094"/>
       <use xlink:href="#DejaVuSans-30" x="190.869141"/>
       <use xlink:href="#DejaVuSans-30" x="254.492188"/>
      </g>
     </g>
    </g>
    <g id="xtick_5">
     <g id="line2d_5">
      <g>
       <use xlink:href="#m369bc63ecf" x="403.76875" y="273.312" style="stroke: #000000; stroke-width: 0.8"/>
      </g>
     </g>
     <g id="text_5">
      <!-- 14000 -->
      <g transform="translate(376.728125 293.229344)scale(0.17 -0.17)">
       <defs>
        <path id="DejaVuSans-34" d="M 2419 4116 
L 825 1625 
L 2419 1625 
L 2419 4116 
z
M 2253 4666 
L 3047 4666 
L 3047 1625 
L 3713 1625 
L 3713 1100 
L 3047 1100 
L 3047 0 
L 2419 0 
L 2419 1100 
L 313 1100 
L 313 1709 
L 2253 4666 
z
" transform="scale(0.015625)"/>
       </defs>
       <use xlink:href="#DejaVuSans-31"/>
       <use xlink:href="#DejaVuSans-34" x="63.623047"/>
       <use xlink:href="#DejaVuSans-30" x="127.246094"/>
       <use xlink:href="#DejaVuSans-30" x="190.869141"/>
       <use xlink:href="#DejaVuSans-30" x="254.492188"/>
      </g>
     </g>
    </g>
   </g>
   <g id="matplotlib.axis_2">
    <g id="ytick_1">
     <g id="line2d_6">
      <defs>
       <path id="m01ed5c7ab2" d="M 0 0 
L -3.5 0 
" style="stroke: #000000; stroke-width: 0.8"/>
      </defs>
      <g>
       <use xlink:href="#m01ed5c7ab2" x="46.64875" y="273.312" style="stroke: #000000; stroke-width: 0.8"/>
      </g>
     </g>
     <g id="text_6">
      <!-- 0 -->
      <g transform="translate(28.8325 279.770672)scale(0.17 -0.17)">
       <use xlink:href="#DejaVuSans-30"/>
      </g>
     </g>
    </g>
    <g id="ytick_2">
     <g id="line2d_7">
      <g>
       <use xlink:href="#m01ed5c7ab2" x="46.64875" y="231.900235" style="stroke: #000000; stroke-width: 0.8"/>
      </g>
     </g>
     <g id="text_7">
      <!-- 50 -->
      <g transform="translate(18.01625 238.358907)scale(0.17 -0.17)">
       <use xlink:href="#DejaVuSans-35"/>
       <use xlink:href="#DejaVuSans-30" x="63.623047"/>
      </g>
     </g>
    </g>
    <g id="ytick_3">
     <g id="line2d_8">
      <g>
       <use xlink:href="#m01ed5c7ab2" x="46.64875" y="190.488471" style="stroke: #000000; stroke-width: 0.8"/>
      </g>
     </g>
     <g id="text_8">
      <!-- 100 -->
      <g transform="translate(7.2 196.947142)scale(0.17 -0.17)">
       <use xlink:href="#DejaVuSans-31"/>
       <use xlink:href="#DejaVuSans-30" x="63.623047"/>
       <use xlink:href="#DejaVuSans-30" x="127.246094"/>
      </g>
     </g>
    </g>
    <g id="ytick_4">
     <g id="line2d_9">
      <g>
       <use xlink:href="#m01ed5c7ab2" x="46.64875" y="149.076706" style="stroke: #000000; stroke-width: 0.8"/>
      </g>
     </g>
     <g id="text_9">
      <!-- 150 -->
      <g transform="translate(7.2 155.535378)scale(0.17 -0.17)">
       <use xlink:href="#DejaVuSans-31"/>
       <use xlink:href="#DejaVuSans-35" x="63.623047"/>
       <use xlink:href="#DejaVuSans-30" x="127.246094"/>
      </g>
     </g>
    </g>
    <g id="ytick_5">
     <g id="line2d_10">
      <g>
       <use xlink:href="#m01ed5c7ab2" x="46.64875" y="107.664941" style="stroke: #000000; stroke-width: 0.8"/>
      </g>
     </g>
     <g id="text_10">
      <!-- 200 -->
      <g transform="translate(7.2 114.123613)scale(0.17 -0.17)">
       <defs>
        <path id="DejaVuSans-32" d="M 1228 531 
L 3431 531 
L 3431 0 
L 469 0 
L 469 531 
Q 828 903 1448 1529 
Q 2069 2156 2228 2338 
Q 2531 2678 2651 2914 
Q 2772 3150 2772 3378 
Q 2772 3750 2511 3984 
Q 2250 4219 1831 4219 
Q 1534 4219 1204 4116 
Q 875 4013 500 3803 
L 500 4441 
Q 881 4594 1212 4672 
Q 1544 4750 1819 4750 
Q 2544 4750 2975 4387 
Q 3406 4025 3406 3419 
Q 3406 3131 3298 2873 
Q 3191 2616 2906 2266 
Q 2828 2175 2409 1742 
Q 1991 1309 1228 531 
z
" transform="scale(0.015625)"/>
       </defs>
       <use xlink:href="#DejaVuSans-32"/>
       <use xlink:href="#DejaVuSans-30" x="63.623047"/>
       <use xlink:href="#DejaVuSans-30" x="127.246094"/>
      </g>
     </g>
    </g>
    <g id="ytick_6">
     <g id="line2d_11">
      <g>
       <use xlink:href="#m01ed5c7ab2" x="46.64875" y="66.253176" style="stroke: #000000; stroke-width: 0.8"/>
      </g>
     </g>
     <g id="text_11">
      <!-- 250 -->
      <g transform="translate(7.2 72.711848)scale(0.17 -0.17)">
       <use xlink:href="#DejaVuSans-32"/>
       <use xlink:href="#DejaVuSans-35" x="63.623047"/>
       <use xlink:href="#DejaVuSans-30" x="127.246094"/>
      </g>
     </g>
    </g>
    <g id="ytick_7">
     <g id="line2d_12">
      <g>
       <use xlink:href="#m01ed5c7ab2" x="46.64875" y="24.841412" style="stroke: #000000; stroke-width: 0.8"/>
      </g>
     </g>
     <g id="text_12">
      <!-- 300 -->
      <g transform="translate(7.2 31.300084)scale(0.17 -0.17)">
       <use xlink:href="#DejaVuSans-33"/>
       <use xlink:href="#DejaVuSans-30" x="63.623047"/>
       <use xlink:href="#DejaVuSans-30" x="127.246094"/>
      </g>
     </g>
    </g>
   </g>
   <g id="line2d_13">
    <path d="M 51.48386 273.312 
L 51.534187 273.312 
L 51.660003 272.483765 
L 51.810982 272.483765 
L 51.936798 271.655529 
L 51.961961 271.655529 
L 52.138103 269.170824 
L 52.163267 269.170824 
L 52.289083 268.342588 
L 52.767184 268.342588 
L 52.918163 266.686118 
L 52.993652 266.686118 
L 53.119469 265.857882 
L 53.144632 265.857882 
L 53.320774 263.373176 
L 53.396264 263.373176 
L 53.52208 262.544941 
L 54.025344 262.544941 
L 54.15116 261.716706 
L 54.176323 261.716706 
L 54.302139 260.888471 
L 54.503445 260.888471 
L 54.629261 260.060235 
L 54.679587 260.060235 
L 54.85573 257.575529 
L 55.686116 257.575529 
L 55.837095 255.919059 
L 55.962911 255.919059 
L 56.139053 253.434353 
L 56.18938 253.434353 
L 56.340359 251.777882 
L 56.566828 251.777882 
L 56.717807 250.121412 
L 57.070092 250.121412 
L 57.195908 249.293176 
L 57.52303 249.293176 
L 57.648846 248.464941 
L 57.699172 248.464941 
L 57.824988 247.636706 
L 58.15211 247.636706 
L 58.277926 246.808471 
L 58.428905 246.808471 
L 58.554721 245.980235 
L 58.982496 245.980235 
L 59.133475 244.323765 
L 59.183801 244.323765 
L 59.309617 243.495529 
L 59.48576 243.495529 
L 59.611576 242.667294 
L 59.938697 242.667294 
L 60.064514 241.839059 
L 60.11484 241.839059 
L 60.240656 241.010824 
L 60.970389 241.010824 
L 61.096205 240.182588 
L 61.247184 240.182588 
L 61.373 239.354353 
L 61.599469 239.354353 
L 61.725285 238.526118 
L 62.731813 238.526118 
L 62.857629 237.697882 
L 62.933119 237.697882 
L 63.058935 236.869647 
L 64.191279 236.869647 
L 64.317095 236.041412 
L 64.719707 236.041412 
L 64.845523 235.213176 
L 64.946176 235.213176 
L 65.122318 232.728471 
L 65.524929 232.728471 
L 65.650745 231.900235 
L 65.675909 231.900235 
L 65.801725 231.072 
L 65.852051 231.072 
L 66.00303 229.415529 
L 66.128846 229.415529 
L 66.254662 228.587294 
L 66.606947 228.587294 
L 66.732763 227.759059 
L 67.462496 227.759059 
L 67.588312 226.930824 
L 67.714128 226.930824 
L 67.839944 226.102588 
L 68.393535 226.102588 
L 68.519351 225.274353 
L 68.645167 225.274353 
L 68.770983 224.446118 
L 69.047778 224.446118 
L 69.173594 223.617882 
L 69.249084 223.617882 
L 69.3749 222.789647 
L 69.92849 222.789647 
L 70.07947 221.133176 
L 70.180122 221.133176 
L 70.305939 220.304941 
L 72.218342 220.304941 
L 72.344158 219.476706 
L 72.822259 219.476706 
L 72.948075 218.648471 
L 73.451339 218.648471 
L 73.577155 217.820235 
L 73.702971 217.820235 
L 73.828787 216.992 
L 74.407541 216.992 
L 74.533357 216.163765 
L 75.086948 216.163765 
L 75.212764 215.335529 
L 75.237927 215.335529 
L 75.363743 214.507294 
L 75.816681 214.507294 
L 75.942497 213.679059 
L 76.093476 213.679059 
L 76.219292 212.850824 
L 76.294782 212.850824 
L 76.420598 212.022588 
L 76.873535 212.022588 
L 76.999351 211.194353 
L 77.578105 211.194353 
L 77.703921 210.366118 
L 79.767304 210.366118 
L 79.89312 209.537882 
L 80.446711 209.537882 
L 80.572527 208.709647 
L 81.503565 208.709647 
L 81.629381 207.881412 
L 84.573477 207.881412 
L 84.699293 207.053176 
L 84.724456 207.053176 
L 84.875435 205.396706 
L 87.467245 205.396706 
L 87.593061 204.568471 
L 87.970509 204.568471 
L 88.121489 202.912 
L 89.102854 202.912 
L 89.278996 200.427294 
L 89.455139 200.427294 
L 89.580955 199.599059 
L 89.706771 199.599059 
L 89.832587 198.770824 
L 89.882913 198.770824 
L 90.008729 197.942588 
L 90.184872 197.942588 
L 90.310688 197.114353 
L 90.889441 197.114353 
L 91.040421 195.457882 
L 92.197928 195.457882 
L 92.323744 194.629647 
L 95.670451 194.629647 
L 95.796267 193.801412 
L 96.475673 193.801412 
L 96.601489 192.973176 
L 96.676979 192.973176 
L 96.802795 192.144941 
L 97.230569 192.144941 
L 97.356385 191.316706 
L 97.507365 191.316706 
L 97.658344 189.660235 
L 97.758997 189.660235 
L 97.884813 188.832 
L 98.564219 188.832 
L 98.690035 188.003765 
L 100.426297 188.003765 
L 100.552113 187.175529 
L 102.036742 187.175529 
L 102.162558 186.347294 
L 103.194249 186.347294 
L 103.320065 185.519059 
L 103.823329 185.519059 
L 103.949146 184.690824 
L 104.427246 184.690824 
L 104.553062 183.862588 
L 104.880184 183.862588 
L 105.006 183.034353 
L 109.585704 183.034353 
L 109.71152 182.206118 
L 110.365763 182.206118 
L 110.491579 181.377882 
L 110.718048 181.377882 
L 110.869027 179.721412 
L 112.429146 179.721412 
L 112.554962 178.893176 
L 114.89514 178.893176 
L 115.020956 178.064941 
L 115.876505 178.064941 
L 116.002321 177.236706 
L 116.077811 177.236706 
L 116.203627 176.408471 
L 116.555912 176.408471 
L 116.681728 175.580235 
L 117.663093 175.580235 
L 117.788909 174.752 
L 120.632351 174.752 
L 120.758167 173.923765 
L 127.577396 173.923765 
L 127.703212 173.095529 
L 127.854192 173.095529 
L 127.980008 172.267294 
L 128.609088 172.267294 
L 128.734904 171.439059 
L 129.917575 171.439059 
L 130.043391 170.610824 
L 130.622144 170.610824 
L 130.74796 169.782588 
L 130.924103 169.782588 
L 131.049919 168.954353 
L 133.717219 168.954353 
L 133.843035 168.126118 
L 136.78713 168.126118 
L 136.912946 167.297882 
L 137.265231 167.297882 
L 137.391047 166.469647 
L 143.832828 166.469647 
L 143.958644 165.641412 
L 148.186062 165.641412 
L 148.186062 165.641412 
" clip-path="url(#pc19b6b018d)" style="fill: none; stroke: #1f77b4; stroke-width: 1.5; stroke-linecap: square"/>
   </g>
   <g id="line2d_14">
    <path d="M 51.48386 273.28399 
L 148.186062 165.641412 
L 148.186062 165.641412 
" clip-path="url(#pc19b6b018d)" style="fill: none; stroke-dasharray: 6,2.25; stroke-dashoffset: 0; stroke: #ff7f0e; stroke-width: 1.5"/>
   </g>
   <g id="line2d_15"/>
   <g id="line2d_16"/>
   <g id="patch_103">
    <path d="M 46.64875 273.312 
L 46.64875 7.2 
" style="fill: none; stroke: #000000; stroke-width: 0.8; stroke-linejoin: miter; stroke-linecap: square"/>
   </g>
   <g id="patch_104">
    <path d="M 403.76875 273.312 
L 403.76875 7.2 
" style="fill: none; stroke: #000000; stroke-width: 0.8; stroke-linejoin: miter; stroke-linecap: square"/>
   </g>
   <g id="patch_105">
    <path d="M 46.64875 273.312 
L 403.76875 273.312 
" style="fill: none; stroke: #000000; stroke-width: 0.8; stroke-linejoin: miter; stroke-linecap: square"/>
   </g>
   <g id="patch_106">
    <path d="M 46.64875 7.2 
L 403.76875 7.2 
" style="fill: none; stroke: #000000; stroke-width: 0.8; stroke-linejoin: miter; stroke-linecap: square"/>
   </g>
   <g id="legend_1">
    <g id="patch_107">
     <path d="M 170.348125 71.178437 
L 391.86875 71.178437 
Q 395.26875 71.178437 395.26875 67.778437 
L 395.26875 19.1 
Q 395.26875 15.7 391.86875 15.7 
L 170.348125 15.7 
Q 166.948125 15.7 166.948125 19.1 
L 166.948125 67.778437 
Q 166.948125 71.178437 170.348125 71.178437 
z
" style="fill: #ffffff; opacity: 0.8; stroke: #cccccc; stroke-linejoin: miter"/>
    </g>
    <g id="line2d_17">
     <path d="M 173.748125 29.467344 
L 190.748125 29.467344 
L 207.748125 29.467344 
" style="fill: none; stroke: #1f77b4; stroke-width: 1.5; stroke-linecap: square"/>
    </g>
    <g id="text_13">
     <!-- query-set centrality -->
     <g transform="translate(221.348125 35.417344)scale(0.17 -0.17)">
      <defs>
       <path id="DejaVuSans-71" d="M 947 1747 
Q 947 1113 1208 752 
Q 1469 391 1925 391 
Q 2381 391 2643 752 
Q 2906 1113 2906 1747 
Q 2906 2381 2643 2742 
Q 2381 3103 1925 3103 
Q 1469 3103 1208 2742 
Q 947 2381 947 1747 
z
M 2906 525 
Q 2725 213 2448 61 
Q 2172 -91 1784 -91 
Q 1150 -91 751 415 
Q 353 922 353 1747 
Q 353 2572 751 3078 
Q 1150 3584 1784 3584 
Q 2172 3584 2448 3432 
Q 2725 3281 2906 2969 
L 2906 3500 
L 3481 3500 
L 3481 -1331 
L 2906 -1331 
L 2906 525 
z
" transform="scale(0.015625)"/>
       <path id="DejaVuSans-75" d="M 544 1381 
L 544 3500 
L 1119 3500 
L 1119 1403 
Q 1119 906 1312 657 
Q 1506 409 1894 409 
Q 2359 409 2629 706 
Q 2900 1003 2900 1516 
L 2900 3500 
L 3475 3500 
L 3475 0 
L 2900 0 
L 2900 538 
Q 2691 219 2414 64 
Q 2138 -91 1772 -91 
Q 1169 -91 856 284 
Q 544 659 544 1381 
z
M 1991 3584 
L 1991 3584 
z
" transform="scale(0.015625)"/>
       <path id="DejaVuSans-65" d="M 3597 1894 
L 3597 1613 
L 953 1613 
Q 991 1019 1311 708 
Q 1631 397 2203 397 
Q 2534 397 2845 478 
Q 3156 559 3463 722 
L 3463 178 
Q 3153 47 2828 -22 
Q 2503 -91 2169 -91 
Q 1331 -91 842 396 
Q 353 884 353 1716 
Q 353 2575 817 3079 
Q 1281 3584 2069 3584 
Q 2775 3584 3186 3129 
Q 3597 2675 3597 1894 
z
M 3022 2063 
Q 3016 2534 2758 2815 
Q 2500 3097 2075 3097 
Q 1594 3097 1305 2825 
Q 1016 2553 972 2059 
L 3022 2063 
z
" transform="scale(0.015625)"/>
       <path id="DejaVuSans-72" d="M 2631 2963 
Q 2534 3019 2420 3045 
Q 2306 3072 2169 3072 
Q 1681 3072 1420 2755 
Q 1159 2438 1159 1844 
L 1159 0 
L 581 0 
L 581 3500 
L 1159 3500 
L 1159 2956 
Q 1341 3275 1631 3429 
Q 1922 3584 2338 3584 
Q 2397 3584 2469 3576 
Q 2541 3569 2628 3553 
L 2631 2963 
z
" transform="scale(0.015625)"/>
       <path id="DejaVuSans-79" d="M 2059 -325 
Q 1816 -950 1584 -1140 
Q 1353 -1331 966 -1331 
L 506 -1331 
L 506 -850 
L 844 -850 
Q 1081 -850 1212 -737 
Q 1344 -625 1503 -206 
L 1606 56 
L 191 3500 
L 800 3500 
L 1894 763 
L 2988 3500 
L 3597 3500 
L 2059 -325 
z
" transform="scale(0.015625)"/>
       <path id="DejaVuSans-2d" d="M 313 2009 
L 1997 2009 
L 1997 1497 
L 313 1497 
L 313 2009 
z
" transform="scale(0.015625)"/>
       <path id="DejaVuSans-73" d="M 2834 3397 
L 2834 2853 
Q 2591 2978 2328 3040 
Q 2066 3103 1784 3103 
Q 1356 3103 1142 2972 
Q 928 2841 928 2578 
Q 928 2378 1081 2264 
Q 1234 2150 1697 2047 
L 1894 2003 
Q 2506 1872 2764 1633 
Q 3022 1394 3022 966 
Q 3022 478 2636 193 
Q 2250 -91 1575 -91 
Q 1294 -91 989 -36 
Q 684 19 347 128 
L 347 722 
Q 666 556 975 473 
Q 1284 391 1588 391 
Q 1994 391 2212 530 
Q 2431 669 2431 922 
Q 2431 1156 2273 1281 
Q 2116 1406 1581 1522 
L 1381 1569 
Q 847 1681 609 1914 
Q 372 2147 372 2553 
Q 372 3047 722 3315 
Q 1072 3584 1716 3584 
Q 2034 3584 2315 3537 
Q 2597 3491 2834 3397 
z
" transform="scale(0.015625)"/>
       <path id="DejaVuSans-74" d="M 1172 4494 
L 1172 3500 
L 2356 3500 
L 2356 3053 
L 1172 3053 
L 1172 1153 
Q 1172 725 1289 603 
Q 1406 481 1766 481 
L 2356 481 
L 2356 0 
L 1766 0 
Q 1100 0 847 248 
Q 594 497 594 1153 
L 594 3053 
L 172 3053 
L 172 3500 
L 594 3500 
L 594 4494 
L 1172 4494 
z
" transform="scale(0.015625)"/>
       <path id="DejaVuSans-20" transform="scale(0.015625)"/>
       <path id="DejaVuSans-63" d="M 3122 3366 
L 3122 2828 
Q 2878 2963 2633 3030 
Q 2388 3097 2138 3097 
Q 1578 3097 1268 2742 
Q 959 2388 959 1747 
Q 959 1106 1268 751 
Q 1578 397 2138 397 
Q 2388 397 2633 464 
Q 2878 531 3122 666 
L 3122 134 
Q 2881 22 2623 -34 
Q 2366 -91 2075 -91 
Q 1284 -91 818 406 
Q 353 903 353 1747 
Q 353 2603 823 3093 
Q 1294 3584 2113 3584 
Q 2378 3584 2631 3529 
Q 2884 3475 3122 3366 
z
" transform="scale(0.015625)"/>
       <path id="DejaVuSans-6e" d="M 3513 2113 
L 3513 0 
L 2938 0 
L 2938 2094 
Q 2938 2591 2744 2837 
Q 2550 3084 2163 3084 
Q 1697 3084 1428 2787 
Q 1159 2491 1159 1978 
L 1159 0 
L 581 0 
L 581 3500 
L 1159 3500 
L 1159 2956 
Q 1366 3272 1645 3428 
Q 1925 3584 2291 3584 
Q 2894 3584 3203 3211 
Q 3513 2838 3513 2113 
z
" transform="scale(0.015625)"/>
       <path id="DejaVuSans-61" d="M 2194 1759 
Q 1497 1759 1228 1600 
Q 959 1441 959 1056 
Q 959 750 1161 570 
Q 1363 391 1709 391 
Q 2188 391 2477 730 
Q 2766 1069 2766 1631 
L 2766 1759 
L 2194 1759 
z
M 3341 1997 
L 3341 0 
L 2766 0 
L 2766 531 
Q 2569 213 2275 61 
Q 1981 -91 1556 -91 
Q 1019 -91 701 211 
Q 384 513 384 1019 
Q 384 1609 779 1909 
Q 1175 2209 1959 2209 
L 2766 2209 
L 2766 2266 
Q 2766 2663 2505 2880 
Q 2244 3097 1772 3097 
Q 1472 3097 1187 3025 
Q 903 2953 641 2809 
L 641 3341 
Q 956 3463 1253 3523 
Q 1550 3584 1831 3584 
Q 2591 3584 2966 3190 
Q 3341 2797 3341 1997 
z
" transform="scale(0.015625)"/>
       <path id="DejaVuSans-6c" d="M 603 4863 
L 1178 4863 
L 1178 0 
L 603 0 
L 603 4863 
z
" transform="scale(0.015625)"/>
       <path id="DejaVuSans-69" d="M 603 3500 
L 1178 3500 
L 1178 0 
L 603 0 
L 603 3500 
z
M 603 4863 
L 1178 4863 
L 1178 4134 
L 603 4134 
L 603 4863 
z
" transform="scale(0.015625)"/>
      </defs>
      <use xlink:href="#DejaVuSans-71"/>
      <use xlink:href="#DejaVuSans-75" x="63.476562"/>
      <use xlink:href="#DejaVuSans-65" x="126.855469"/>
      <use xlink:href="#DejaVuSans-72" x="188.378906"/>
      <use xlink:href="#DejaVuSans-79" x="229.492188"/>
      <use xlink:href="#DejaVuSans-2d" x="286.921875"/>
      <use xlink:href="#DejaVuSans-73" x="323.005859"/>
      <use xlink:href="#DejaVuSans-65" x="375.105469"/>
      <use xlink:href="#DejaVuSans-74" x="436.628906"/>
      <use xlink:href="#DejaVuSans-20" x="475.837891"/>
      <use xlink:href="#DejaVuSans-63" x="507.625"/>
      <use xlink:href="#DejaVuSans-65" x="562.605469"/>
      <use xlink:href="#DejaVuSans-6e" x="624.128906"/>
      <use xlink:href="#DejaVuSans-74" x="687.507812"/>
      <use xlink:href="#DejaVuSans-72" x="726.716797"/>
      <use xlink:href="#DejaVuSans-61" x="767.830078"/>
      <use xlink:href="#DejaVuSans-6c" x="829.109375"/>
      <use xlink:href="#DejaVuSans-69" x="856.892578"/>
      <use xlink:href="#DejaVuSans-74" x="884.675781"/>
      <use xlink:href="#DejaVuSans-79" x="923.884766"/>
     </g>
    </g>
    <g id="line2d_18">
     <path d="M 173.748125 54.420156 
L 190.748125 54.420156 
L 207.748125 54.420156 
" style="fill: none; stroke-dasharray: 6,2.25; stroke-dashoffset: 0; stroke: #ff7f0e; stroke-width: 1.5"/>
    </g>
    <g id="text_14">
     <!-- random_curve -->
     <g transform="translate(221.348125 60.370156)scale(0.17 -0.17)">
      <defs>
       <path id="DejaVuSans-64" d="M 2906 2969 
L 2906 4863 
L 3481 4863 
L 3481 0 
L 2906 0 
L 2906 525 
Q 2725 213 2448 61 
Q 2172 -91 1784 -91 
Q 1150 -91 751 415 
Q 353 922 353 1747 
Q 353 2572 751 3078 
Q 1150 3584 1784 3584 
Q 2172 3584 2448 3432 
Q 2725 3281 2906 2969 
z
M 947 1747 
Q 947 1113 1208 752 
Q 1469 391 1925 391 
Q 2381 391 2643 752 
Q 2906 1113 2906 1747 
Q 2906 2381 2643 2742 
Q 2381 3103 1925 3103 
Q 1469 3103 1208 2742 
Q 947 2381 947 1747 
z
" transform="scale(0.015625)"/>
       <path id="DejaVuSans-6f" d="M 1959 3097 
Q 1497 3097 1228 2736 
Q 959 2375 959 1747 
Q 959 1119 1226 758 
Q 1494 397 1959 397 
Q 2419 397 2687 759 
Q 2956 1122 2956 1747 
Q 2956 2369 2687 2733 
Q 2419 3097 1959 3097 
z
M 1959 3584 
Q 2709 3584 3137 3096 
Q 3566 2609 3566 1747 
Q 3566 888 3137 398 
Q 2709 -91 1959 -91 
Q 1206 -91 779 398 
Q 353 888 353 1747 
Q 353 2609 779 3096 
Q 1206 3584 1959 3584 
z
" transform="scale(0.015625)"/>
       <path id="DejaVuSans-6d" d="M 3328 2828 
Q 3544 3216 3844 3400 
Q 4144 3584 4550 3584 
Q 5097 3584 5394 3201 
Q 5691 2819 5691 2113 
L 5691 0 
L 5113 0 
L 5113 2094 
Q 5113 2597 4934 2840 
Q 4756 3084 4391 3084 
Q 3944 3084 3684 2787 
Q 3425 2491 3425 1978 
L 3425 0 
L 2847 0 
L 2847 2094 
Q 2847 2600 2669 2842 
Q 2491 3084 2119 3084 
Q 1678 3084 1418 2786 
Q 1159 2488 1159 1978 
L 1159 0 
L 581 0 
L 581 3500 
L 1159 3500 
L 1159 2956 
Q 1356 3278 1631 3431 
Q 1906 3584 2284 3584 
Q 2666 3584 2933 3390 
Q 3200 3197 3328 2828 
z
" transform="scale(0.015625)"/>
       <path id="DejaVuSans-5f" d="M 3263 -1063 
L 3263 -1509 
L -63 -1509 
L -63 -1063 
L 3263 -1063 
z
" transform="scale(0.015625)"/>
       <path id="DejaVuSans-76" d="M 191 3500 
L 800 3500 
L 1894 563 
L 2988 3500 
L 3597 3500 
L 2284 0 
L 1503 0 
L 191 3500 
z
" transform="scale(0.015625)"/>
      </defs>
      <use xlink:href="#DejaVuSans-72"/>
      <use xlink:href="#DejaVuSans-61" x="41.113281"/>
      <use xlink:href="#DejaVuSans-6e" x="102.392578"/>
      <use xlink:href="#DejaVuSans-64" x="165.771484"/>
      <use xlink:href="#DejaVuSans-6f" x="229.248047"/>
      <use xlink:href="#DejaVuSans-6d" x="290.429688"/>
      <use xlink:href="#DejaVuSans-5f" x="387.841797"/>
      <use xlink:href="#DejaVuSans-63" x="437.841797"/>
      <use xlink:href="#DejaVuSans-75" x="492.822266"/>
      <use xlink:href="#DejaVuSans-72" x="556.201172"/>
      <use xlink:href="#DejaVuSans-76" x="597.314453"/>
      <use xlink:href="#DejaVuSans-65" x="656.494141"/>
     </g>
    </g>
   </g>
  </g>
 </g>
 <defs>
  <clipPath id="pc19b6b018d">
   <rect x="46.64875" y="7.2" width="357.12" height="266.112"/>
  </clipPath>
 </defs>
</svg>
